# AST/ASF file generated using VICON BodyLanguage
# -----------------------------------------------
:version 1.10
:name VICON
:units
  mass 1.0
  length 0.45
  angle deg
:documentation
   .ast/.asf automatically generated from VICON data using
   VICON BodyBuilder and BodyLanguage model FoxedUp or BRILLIANT.MOD
:root
   order TX TY TZ RX RY RZ
   axis XYZ
   position 0 0 0  
   orientation 0 0 0 
:bonedata
  begin
     id 1 
     name lhipjoint
     direction 0.710188 -0.616876 0.339259 
     length 2.5669 
     axis 0 0 0  XYZ
  end
  begin
     id 2 
     name lfemur
     direction 0.34202 -0.939693 0  
     length 7.12796  
     axis 0 0 20  XYZ
    dof rx ry rz
    limits (-160.0 20.0)
           (-70.0 70.0)
           (-60.0 70.0)
  end
  begin
     id 3 
     name ltibia
     direction 0.34202 -0.939693 0   
     length 7.58108   
     axis 0 0 20   XYZ
    dof rx
    limits (-10.0 170.0)
  end
  begin
     id 4 
     name lfoot
     direction 0.0669471 -0.183936 0.980656   
     length 2.17365   
     axis -90 7.62852e-016 20   XYZ
    dof rx rz
    limits (-45.0 90.0)
           (-70.0 20.0)
  end
  begin
     id 5 
     name ltoes
     direction 1.53508e-011 -4.21705e-011 1   
     length 1.09427   
     axis -90 7.62852e-016 20   XYZ
    dof rx
    limits (-90.0 20.0)
  end
  begin
     id 6 
     name rhipjoint
     direction -0.700191 -0.625589 0.34405   
     length 2.53115  
     axis 0 0 0  XYZ 
  end
  begin
     id 7 
     name rfemur
     direction -0.34202 -0.939693 0   
     length 7.33006   
     axis 0 0 -20   XYZ
    dof rx ry rz
    limits (-160.0 20.0)
           (-70.0 70.0)
           (-70.0 60.0)
  end
  begin
     id 8 
     name rtibia
     direction -0.34202 -0.939693 0   
     length 7.64926   
     axis 0 0 -20   XYZ
    dof rx
    limits (-10.0 170.0)
 end
 begin
     id 9 
     name rfoot
     direction -0.0688927 -0.189281 0.979503   
     length 2.20493  
     axis -90 -7.62852e-016 -20   XYZ
    dof rx rz
    limits (-45.0 90.0)
           (-20.0 70.0)
  end
  begin
     id 10 
     name rtoes
     direction -1.53567e-011 -4.21933e-011 1   
     length 1.10919   
     axis -90 -7.62852e-016 -20   XYZ
    dof rx
    limits (-90.0 20.0)
  end
  begin
     id 11 
     name lowerback
     direction -0.0167868 0.989873 -0.140959   
     length 2.14596   
     axis 0 0 0   XYZ
    dof rx ry rz
    limits (-20.0 45.0)
           (-30.0 30.0)
           (-30.0 30.0)
  end
  begin
     id 12 
     name upperback
     direction 0.0129109 0.998033 0.0613525   
     length 2.10457   
     axis 0 0 0   XYZ
    dof rx ry rz
    limits (-20.0 45.0)
           (-30.0 30.0)
           (-30.0 30.0)
  end
  begin
     id 13 
     name thorax
     direction 0.0177047 0.991119 0.131797   
     length 2.17652   
     axis 0 0 0   XYZ
    dof rx ry rz
    limits (-20.0 45.0)
           (-30.0 30.0)
           (-30.0 30.0)
  end
  begin
     id 14 
     name lowerneck
     direction -0.0336893 0.997548 0.0613464   
     length 1.8912   
     axis 0 0 0   XYZ
    dof rx ry rz
    limits (-20.0 45.0)
           (-30.0 30.0)
           (-30.0 30.0)
  end
  begin
     id 15 
     name upperneck
     direction 0.0435909 0.997179 -0.0611028   
     length 1.8829   
     axis 0 0 0   XYZ
    dof rx ry rz
    limits (-20.0 45.0)
           (-30.0 30.0)
           (-30.0 30.0)
  end
  begin
     id 16
     name head
     direction 0.0175076 0.999444 -0.0283782  
     length 1.93197  
     axis 0 0 0   XYZ
    dof rx ry rz
    limits (-20.0 45.0)
           (-30.0 30.0)
           (-30.0 30.0)
  end
  begin
     id 17 
     name lclavicle
     direction 0.919164 0.389875 0.0559876  
     length 3.60004  
     axis 0 0 0   XYZ
    dof ry rz
    limits (-20.0 10.0)
           (0.0 20.0)
  end
  begin
     id 18 
     name lhumerus
     direction 1 -4.48958e-011 6.89191e-027   
     length 5.43301   
     axis 180 -30 -90   XYZ
    dof rx ry rz
    limits (-60.0 90.0)
           (-90.0 90.0)
           (-90.0 90.0)
  end
  begin
     id 19
     name lradius
     direction 1 -4.4897e-011 3.24727e-027   
     length 3.15936   
     axis 180 -30 -90   XYZ
    dof rx
    limits (-10.0 170.0)
  end
  begin
     id 20
     name lwrist
     direction 1 -4.4897e-011 9.00228e-027   
     length 1.57968   
     axis -6.29373e-015 90 90   XYZ
    dof ry
    limits (-180.0 0.0)
 end
  begin
     id 21 
     name lhand
     direction 1 -4.48968e-011 1.80042e-026   
     length 0.712827   
     axis -1.14882e-014 90 90   XYZ
    dof rx rz
    limits (-90.0 90.0)
           (-45.0 45.0)
  end
  begin
     id 22 
     name lfingers
     direction 1 -4.49019e-011 3.60267e-026   
     length 0.574699   
     axis -2.29769e-014 90 90   XYZ
    dof rx
    limits (0.0 90.0)
  end
  begin
     id 23
     name lthumb
     direction 0.707107 -6.3498e-011 0.707107   
     length 0.825157   
     axis -90 45 5.37419e-014   XYZ
    dof rx rz
    limits (-45.0 45.0)
           (-45.0 45.0)
  end
  begin
     id 24 
     name rclavicle
     direction -0.890334 0.455305 -0.00132111   
     length 3.51494  
     axis 0 0 0   XYZ 
    dof ry rz
    limits (-10.0 20.0)
           (-20.0 0.0)
  end
  begin
     id 25 
     name rhumerus
     direction -1 -4.48967e-011 5.07175e-028  
     length 5.34194   
     axis 180 30 90   XYZ
    dof rx ry rz
    limits (-90.0 60.0)
           (-90.0 90.0)
           (-90.0 90.0)
  end
  begin
     id 26 
     name rradius
     direction -1 -4.48955e-011 3.30467e-027   
     length 3.19351   
     axis 180 30 90   XYZ
    dof rx
    limits (-10.0 170.0)
  end
  begin
     id 27 
     name rwrist
     direction -1 -4.48968e-011 9.00208e-027   
     length 1.59676   
     axis -6.29373e-015 -90 -90   XYZ
    dof ry
    limits (-180.0 0.0)
  end
  begin
     id 28
     name rhand
     direction -1 -4.49e-011 1.80099e-026   
     length 0.743862   
     axis -1.14882e-014 -90 -90   XYZ
    dof rx rz
    limits (-90.0 90.0)
           (-45.0 45.0)
  end
  begin
     id 29
     name rfingers
     direction -1 -4.49009e-011 3.6023e-026   
     length 0.599721   
     axis -2.29769e-014 -90 -90   XYZ
    dof rx
    limits (0.0 90.0)
  end
  begin
     id 30
     name rthumb
     direction -0.707107 -6.35025e-011 0.707107   
     length 0.861083   
     axis -90 -45 -5.37419e-014   XYZ
    dof rx rz
    limits (-45.0 45.0)
           (-45.0 45.0)
  end
:hierarchy
  begin
    root lhipjoint rhipjoint lowerback
    lhipjoint lfemur
    lfemur ltibia
    ltibia lfoot
    lfoot ltoes
    rhipjoint rfemur
    rfemur rtibia
    rtibia rfoot
    rfoot rtoes
    lowerback upperback
    upperback thorax
    thorax lowerneck lclavicle rclavicle
    lowerneck upperneck
    upperneck head
    lclavicle lhumerus
    lhumerus lradius
    lradius lwrist
    lwrist lhand lthumb
    lhand lfingers
    rclavicle rhumerus
    rhumerus rradius
    rradius rwrist
    rwrist rhand rthumb
    rhand rfingers
  end

#!OML:ASF H:\Martial Arts Walks\Project 1\Capture day 1\Session 1\male.ASF
:FULLY-SPECIFIED
:DEGREES
16
root -0.773918 11.6022 11.3381 8.72252 1.51335 -1.82263
lowerback 18.5302 1.61525 -2.52797
upperback -3.66702 1.68722 0.901889
thorax -14.7609 1.04556 1.94141
lowerneck -8.49886 -3.38035 -5.87985
upperneck 7.0073 -4.32169 5.66628
head 3.72667 -2.02373 2.43039
rclavicle 5.75233e-015 5.41688e-015
rhumerus 39.1999 -2.65903 -64.1226
rradius 94.6917
rwrist 20.8697
rhand 0.967301 -14.0065
rfingers 7.12502
rthumb 26.5166 -42.1709
lclavicle 5.75233e-015 5.41688e-015
lhumerus 41.2611 -4.65559 87.7074
lradius 87.8093
lwrist -35.8634
lhand -10.5259 2.06847
lfingers 7.12502
lthumb 15.4772 31.4689
rfemur -71.8044 -5.27877 20.9907
rtibia 107.134
rfoot -33.2048 -17.8064
rtoes -14.0516
lfemur -72.4451 11.0833 -18.1162
ltibia 106.321
lfoot -31.4035 16.9471
ltoes -14.3772
17
root -0.771233 11.6024 11.3397 8.71246 1.51783 -1.8244
lowerback 18.5316 1.60793 -2.52384
upperback -3.65844 1.67947 0.909716
thorax -14.7511 1.04194 1.9504
lowerneck -8.49667 -3.3788 -5.88107
upperneck 7.01956 -4.32148 5.68217
head 3.7304 -2.0229 2.43546
rclavicle 1.68346e-015 1.09332e-014
rhumerus 39.1879 -2.65017 -64.0935
rradius 94.6992
rwrist 20.8741
rhand 0.963665 -14.0137
rfingers 7.12502
rthumb 26.5131 -42.1785
lclavicle 1.68346e-015 1.09332e-014
lhumerus 41.2502 -4.67566 87.6981
lradius 87.8425
lwrist -35.8644
lhand -10.5093 2.0893
lfingers 7.12502
lthumb 15.4932 31.4885
rfemur -71.7806 -5.29198 20.977
rtibia 107.134
rfoot -33.2064 -17.8161
rtoes -14.1007
lfemur -72.4256 11.0805 -18.1275
ltibia 106.323
lfoot -31.4127 16.9601
ltoes -14.3883
18
root -0.76866 11.6025 11.3411 8.70356 1.52692 -1.82019
lowerback 18.5331 1.59904 -2.52634
upperback -3.65088 1.668 0.917611
thorax -14.7427 1.03724 1.9644
lowerneck -8.49027 -3.37601 -5.88268
upperneck 7.02565 -4.3193 5.69532
head 3.7314 -2.02131 2.43996
rclavicle 7.31155e-015 -1.11816e-014
rhumerus 39.1755 -2.63806 -64.0635
rradius 94.7042
rwrist 20.8812
rhand 0.966332 -14.0142
rfingers 7.12502
rthumb 26.5156 -42.1787
lclavicle 7.31155e-015 -1.11816e-014
lhumerus 41.2371 -4.69259 87.6877
lradius 87.8755
lwrist -35.8687
lhand -10.509 2.11425
lfingers 7.12502
lthumb 15.4935 31.5134
rfemur -71.7595 -5.31133 20.9572
rtibia 107.135
rfoot -33.2117 -17.8189
rtoes -14.1384
lfemur -72.4063 11.0676 -18.1434
ltibia 106.324
lfoot -31.4225 16.9722
ltoes -14.3919
19
root -0.766277 11.6022 11.3421 8.6997 1.53949 -1.81806
lowerback 18.5349 1.58931 -2.52864
upperback -3.64564 1.65575 0.927631
thorax -14.7373 1.03236 1.98092
lowerneck -8.48756 -3.37396 -5.88344
upperneck 7.03212 -4.3175 5.70252
head 3.73299 -2.02012 2.44242
rclavicle 3.73902e-014 9.98893e-015
rhumerus 39.1641 -2.62541 -64.0325
rradius 94.707
rwrist 20.887
rhand 0.983901 -14.0152
rfingers 7.12502
rthumb 26.5324 -42.1771
lclavicle 3.73902e-014 9.98893e-015
lhumerus 41.2246 -4.70677 87.6777
lradius 87.9069
lwrist -35.8727
lhand -10.523 2.13295
lfingers 7.12502
lthumb 15.48 31.5332
rfemur -71.7496 -5.33005 20.9414
rtibia 107.14
rfoot -33.2121 -17.8203
rtoes -14.1688
lfemur -72.3987 11.0509 -18.1558
ltibia 106.327
lfoot -31.4285 16.9783
ltoes -14.3944
20
root -0.763954 11.6019 11.343 8.69754 1.5524 -1.81336
lowerback 18.536 1.5805 -2.53366
upperback -3.64083 1.64406 0.937356
thorax -14.7321 1.02795 1.99849
lowerneck -8.489 -3.37287 -5.88329
upperneck 7.0396 -4.31647 5.70486
head 3.73548 -2.01945 2.44313
rclavicle -1.3977e-015 -9.44227e-016
rhumerus 39.1553 -2.61542 -63.9995
rradius 94.7082
rwrist 20.8846
rhand 1.01849 -14.0213
rfingers 7.12502
rthumb 26.5655 -42.1782
lclavicle -1.3977e-015 -9.44227e-016
lhumerus 41.2143 -4.71978 87.6695
lradius 87.9342
lwrist -35.874
lhand -10.5494 2.14337
lfingers 7.12502
lthumb 15.4545 31.5456
rfemur -71.7426 -5.34729 20.9227
rtibia 107.145
rfoot -33.2216 -17.8144
rtoes -14.1585
lfemur -72.393 11.0312 -18.1705
ltibia 106.331
lfoot -31.4343 16.982
ltoes -14.3859
21
root -0.761765 11.6018 11.3437 8.69665 1.56478 -1.80929
lowerback 18.5387 1.57301 -2.53899
upperback -3.6367 1.63404 0.947109
thorax -14.7287 1.02437 2.01571
lowerneck -8.49526 -3.37398 -5.87918
upperneck 7.0478 -4.31796 5.69962
head 3.73888 -2.0202 2.44065
rclavicle 7.21837e-015 8.07563e-015
rhumerus 39.1488 -2.60859 -63.9661
rradius 94.7072
rwrist 20.876
rhand 1.06652 -14.0328
rfingers 7.12502
rthumb 26.6115 -42.1827
lclavicle 7.21837e-015 8.07563e-015
lhumerus 41.2084 -4.73228 87.6628
lradius 87.957
lwrist -35.8723
lhand -10.5795 2.14903
lfingers 7.12502
lthumb 15.4256 31.5535
rfemur -71.7367 -5.35848 20.9045
rtibia 107.149
rfoot -33.2293 -17.811
rtoes -14.1385
lfemur -72.3894 11.012 -18.1841
ltibia 106.333
lfoot -31.4377 16.9874
ltoes -14.3876
22
root -0.759769 11.6013 11.3442 8.69846 1.57681 -1.80941
lowerback 18.5415 1.56677 -2.54091
upperback -3.63307 1.62655 0.957076
thorax -14.7261 1.02166 2.03045
lowerneck -8.50717 -3.37651 -5.87393
upperneck 7.05541 -4.32108 5.6933
head 3.74307 -2.0217 2.43747
rclavicle -2.57488e-014 3.67752e-015
rhumerus 39.1454 -2.60638 -63.9316
rradius 94.7034
rwrist 20.8616
rhand 1.11706 -14.0479
rfingers 7.12502
rthumb 26.6599 -42.1905
lclavicle -2.57488e-014 3.67752e-015
lhumerus 41.2081 -4.74531 87.6585
lradius 87.973
lwrist -35.8708
lhand -10.6103 2.15347
lfingers 7.12502
lthumb 15.3959 31.5602
rfemur -71.7367 -5.36414 20.892
rtibia 107.155
rfoot -33.2322 -17.8134
rtoes -14.114
lfemur -72.3947 10.9965 -18.1932
ltibia 106.338
lfoot -31.4379 16.993
ltoes -14.3931
